<svg width="200" height="32" viewBox="0 0 200 32" fill="none" xmlns="http://www.w3.org/2000/svg">
<path fill-rule="evenodd" clip-rule="evenodd" d="M15.559 0.710304C17.7569 -1.18264 21.0393 1.02014 20.1516 3.79235L19.0619 7.19494C17.9128 10.7833 17.4004 14.5376 17.5385 18.2864C19.2552 14.5426 21.7415 11.1942 24.8452 8.46944L26.0764 7.38854C28.1586 5.56054 31.3509 7.46325 30.7622 10.1815L29.8356 14.4607C29.4126 16.414 29.3226 18.4214 29.5655 20.3973C33.1867 17.3364 37.9706 15.9534 42.7155 16.6795L43.3578 16.7777C44.544 16.9593 45.3595 18.0749 45.1794 19.2697C44.999 20.4646 43.8915 21.286 42.7053 21.1045L42.0629 21.0061C38.0036 20.3849 33.9055 21.8556 31.1505 24.922C29.4266 26.8407 26.2714 26.0017 25.7124 23.4759L25.6122 23.0231C24.9518 20.039 24.9151 16.951 25.5026 13.9547C23.2876 16.4516 21.5866 19.3801 20.5121 22.5711L20.2915 23.226C19.1273 26.6836 14.1394 26.2427 13.5906 22.6338C12.8294 17.6269 13.1088 12.5223 14.4033 7.64163C8.9901 13.1531 6.07923 20.6974 4.65172 28.3658L4.30799 30.2122C4.08687 31.4 2.95167 32.1824 1.77243 31.9596C0.593188 31.7368 -0.183518 30.5934 0.0376039 29.4057L0.381313 27.5592C2.19037 17.8414 6.48024 8.52905 13.9409 2.10379L15.559 0.710304Z" fill="black"/>
<path d="M54.9384 25V11.9091H58.3986V14.2188H58.552C58.8247 13.4517 59.2793 12.8466 59.9156 12.4034C60.552 11.9602 61.3134 11.7386 62.1997 11.7386C63.0975 11.7386 63.8617 11.9631 64.4923 12.4119C65.123 12.8551 65.5435 13.4574 65.7537 14.2188H65.8901C66.1571 13.4688 66.6401 12.8693 67.3389 12.4205C68.0435 11.9659 68.8759 11.7386 69.8361 11.7386C71.0577 11.7386 72.0492 12.1278 72.8105 12.9062C73.5776 13.679 73.9611 14.7756 73.9611 16.196V25H70.3389V16.9119C70.3389 16.1847 70.1458 15.6392 69.7594 15.2756C69.373 14.9119 68.8901 14.7301 68.3105 14.7301C67.6514 14.7301 67.1372 14.9403 66.7679 15.3608C66.3986 15.7756 66.2139 16.3239 66.2139 17.0057V25H62.694V16.8352C62.694 16.1932 62.5094 15.6818 62.1401 15.3011C61.7764 14.9205 61.2963 14.7301 60.6997 14.7301C60.2963 14.7301 59.9327 14.8324 59.6088 15.0369C59.2906 15.2358 59.0378 15.517 58.8503 15.8807C58.6628 16.2386 58.569 16.6591 58.569 17.142V25H54.9384ZM78.6017 29.9091C78.1415 29.9091 77.7097 29.8722 77.3063 29.7983C76.9085 29.7301 76.579 29.642 76.3176 29.5341L77.1358 26.8239C77.5619 26.9545 77.9455 27.0256 78.2864 27.0369C78.633 27.0483 78.9313 26.9688 79.1813 26.7983C79.4369 26.6278 79.6443 26.3381 79.8034 25.929L80.0165 25.375L75.3205 11.9091H79.1386L81.8489 21.5227H81.9852L84.721 11.9091H88.5648L83.4767 26.4148C83.2324 27.1193 82.9 27.733 82.4796 28.2557C82.0648 28.7841 81.5392 29.1903 80.9029 29.4744C80.2665 29.7642 79.4994 29.9091 78.6017 29.9091ZM97.4625 11.9091V14.6364H89.383V11.9091H97.4625ZM91.2324 25V10.9631C91.2324 10.0142 91.4171 9.22727 91.7864 8.60227C92.1614 7.97727 92.6727 7.50852 93.3205 7.19602C93.9682 6.88352 94.704 6.72727 95.5279 6.72727C96.0847 6.72727 96.5932 6.76989 97.0534 6.85511C97.5193 6.94034 97.8659 7.01705 98.0932 7.08523L97.4455 9.8125C97.3034 9.76705 97.1273 9.72443 96.9171 9.68466C96.7125 9.64489 96.5023 9.625 96.2864 9.625C95.7523 9.625 95.3801 9.75 95.1699 10C94.9597 10.2443 94.8546 10.5881 94.8546 11.0312V25H91.2324ZM103.311 7.54545V25H99.6806V7.54545H103.311ZM112.134 25.2557C110.811 25.2557 109.666 24.9744 108.7 24.4119C107.74 23.8437 106.998 23.054 106.475 22.0426C105.953 21.0256 105.691 19.8466 105.691 18.5057C105.691 17.1534 105.953 15.9716 106.475 14.9602C106.998 13.9432 107.74 13.1534 108.7 12.5909C109.666 12.0227 110.811 11.7386 112.134 11.7386C113.458 11.7386 114.6 12.0227 115.561 12.5909C116.526 13.1534 117.271 13.9432 117.793 14.9602C118.316 15.9716 118.578 17.1534 118.578 18.5057C118.578 19.8466 118.316 21.0256 117.793 22.0426C117.271 23.054 116.526 23.8437 115.561 24.4119C114.6 24.9744 113.458 25.2557 112.134 25.2557ZM112.151 22.4432C112.754 22.4432 113.257 22.2727 113.66 21.9318C114.063 21.5852 114.367 21.1136 114.572 20.517C114.782 19.9205 114.887 19.2415 114.887 18.4801C114.887 17.7188 114.782 17.0398 114.572 16.4432C114.367 15.8466 114.063 15.375 113.66 15.0284C113.257 14.6818 112.754 14.5085 112.151 14.5085C111.543 14.5085 111.032 14.6818 110.617 15.0284C110.208 15.375 109.899 15.8466 109.688 16.4432C109.484 17.0398 109.382 17.7188 109.382 18.4801C109.382 19.2415 109.484 19.9205 109.688 20.517C109.899 21.1136 110.208 21.5852 110.617 21.9318C111.032 22.2727 111.543 22.4432 112.151 22.4432ZM123.193 25L119.63 11.9091H123.303L125.332 20.7045H125.451L127.565 11.9091H131.17L133.318 20.6534H133.428L135.423 11.9091H139.088L135.534 25H131.69L129.44 16.767H129.278L127.028 25H123.193ZM141.024 25V11.9091H144.485V14.2188H144.638C144.911 13.4517 145.365 12.8466 146.002 12.4034C146.638 11.9602 147.399 11.7386 148.286 11.7386C149.183 11.7386 149.948 11.9631 150.578 12.4119C151.209 12.8551 151.629 13.4574 151.84 14.2188H151.976C152.243 13.4688 152.726 12.8693 153.425 12.4205C154.129 11.9659 154.962 11.7386 155.922 11.7386C157.144 11.7386 158.135 12.1278 158.896 12.9062C159.664 13.679 160.047 14.7756 160.047 16.196V25H156.425V16.9119C156.425 16.1847 156.232 15.6392 155.845 15.2756C155.459 14.9119 154.976 14.7301 154.396 14.7301C153.737 14.7301 153.223 14.9403 152.854 15.3608C152.485 15.7756 152.3 16.3239 152.3 17.0057V25H148.78V16.8352C148.78 16.1932 148.595 15.6818 148.226 15.3011C147.862 14.9205 147.382 14.7301 146.786 14.7301C146.382 14.7301 146.019 14.8324 145.695 15.0369C145.377 15.2358 145.124 15.517 144.936 15.8807C144.749 16.2386 144.655 16.6591 144.655 17.142V25H141.024ZM166.648 25.2472C165.813 25.2472 165.068 25.1023 164.415 24.8125C163.762 24.517 163.244 24.0824 162.864 23.5085C162.489 22.929 162.301 22.2074 162.301 21.3438C162.301 20.6165 162.435 20.0057 162.702 19.5114C162.969 19.017 163.333 18.6193 163.793 18.3182C164.253 18.017 164.776 17.7898 165.361 17.6364C165.952 17.483 166.571 17.375 167.219 17.3125C167.98 17.233 168.594 17.1591 169.06 17.0909C169.526 17.017 169.864 16.9091 170.074 16.767C170.284 16.625 170.389 16.4148 170.389 16.1364V16.0852C170.389 15.5455 170.219 15.1278 169.878 14.8324C169.543 14.5369 169.065 14.3892 168.446 14.3892C167.793 14.3892 167.273 14.5341 166.887 14.8239C166.5 15.108 166.244 15.4659 166.119 15.8977L162.762 15.625C162.932 14.8295 163.267 14.142 163.767 13.5625C164.267 12.9773 164.912 12.5284 165.702 12.2159C166.497 11.8977 167.418 11.7386 168.463 11.7386C169.19 11.7386 169.887 11.8239 170.551 11.9943C171.222 12.1648 171.815 12.429 172.333 12.7869C172.855 13.1449 173.267 13.6051 173.568 14.1676C173.869 14.7244 174.02 15.392 174.02 16.1705V25H170.577V23.1847H170.475C170.264 23.5938 169.983 23.9545 169.631 24.267C169.279 24.5739 168.855 24.8153 168.361 24.9915C167.867 25.1619 167.296 25.2472 166.648 25.2472ZM167.688 22.7415C168.222 22.7415 168.693 22.6364 169.102 22.4261C169.512 22.2102 169.833 21.9205 170.065 21.5568C170.298 21.1932 170.415 20.7812 170.415 20.321V18.9318C170.301 19.0057 170.145 19.0739 169.946 19.1364C169.753 19.1932 169.534 19.2472 169.29 19.2983C169.046 19.3437 168.801 19.3864 168.557 19.4261C168.313 19.4602 168.091 19.4915 167.892 19.5199C167.466 19.5824 167.094 19.6818 166.776 19.8182C166.458 19.9545 166.21 20.1392 166.034 20.3722C165.858 20.5994 165.77 20.8835 165.77 21.2244C165.77 21.7188 165.949 22.0966 166.307 22.358C166.671 22.6136 167.131 22.7415 167.688 22.7415ZM183.8 11.9091V14.6364H175.916V11.9091H183.8ZM177.706 8.77273H181.337V20.9773C181.337 21.3125 181.388 21.5739 181.49 21.7614C181.592 21.9432 181.735 22.071 181.916 22.1449C182.104 22.2187 182.32 22.2557 182.564 22.2557C182.735 22.2557 182.905 22.2415 183.075 22.2131C183.246 22.179 183.377 22.1534 183.467 22.1364L184.039 24.8381C183.857 24.8949 183.601 24.9602 183.271 25.0341C182.942 25.1136 182.541 25.1619 182.07 25.179C181.195 25.2131 180.428 25.0966 179.769 24.8295C179.115 24.5625 178.607 24.1477 178.243 23.5852C177.879 23.0227 177.7 22.3125 177.706 21.4545V8.77273ZM191.99 25.2557C190.644 25.2557 189.485 24.983 188.513 24.4375C187.547 23.8864 186.803 23.108 186.28 22.1023C185.757 21.0909 185.496 19.8949 185.496 18.5142C185.496 17.1676 185.757 15.9858 186.28 14.9688C186.803 13.9517 187.539 13.1591 188.487 12.5909C189.442 12.0227 190.561 11.7386 191.845 11.7386C192.709 11.7386 193.513 11.8778 194.257 12.1562C195.007 12.429 195.661 12.8409 196.217 13.392C196.78 13.9432 197.217 14.6364 197.53 15.4716C197.842 16.3011 197.999 17.2727 197.999 18.3864V19.3835H186.945V17.1335H194.581C194.581 16.6108 194.467 16.1477 194.24 15.7443C194.013 15.3409 193.698 15.0256 193.294 14.7983C192.896 14.5653 192.433 14.4489 191.905 14.4489C191.354 14.4489 190.865 14.5767 190.439 14.8324C190.019 15.0824 189.689 15.4205 189.45 15.8466C189.212 16.267 189.09 16.7358 189.084 17.2528V19.392C189.084 20.0398 189.203 20.5994 189.442 21.071C189.686 21.5426 190.03 21.9062 190.473 22.1619C190.916 22.4176 191.442 22.5455 192.05 22.5455C192.453 22.5455 192.823 22.4886 193.158 22.375C193.493 22.2614 193.78 22.0909 194.019 21.8636C194.257 21.6364 194.439 21.358 194.564 21.0284L197.922 21.25C197.752 22.0568 197.402 22.7614 196.874 23.3636C196.351 23.9602 195.675 24.4261 194.845 24.7614C194.021 25.0909 193.07 25.2557 191.99 25.2557Z" fill="black"/>
</svg>
